{
  "accessors": [
    {
      "bufferView": 2,
      "componentType": 5126,
      "count": 38692,
      "max": [
        0.16041649878025055,
        4.063238287499438e-11,
        0.08873187750577927
      ],
      "min": [
        -0.16041651368141174,
        -0.3212929964065552,
        -0.08873187005519867
      ],
      "type": "VEC3"
    },
    {
      "bufferView": 2,
      "byteOffset": 464304,
      "componentType": 5126,
      "count": 38692,
      "max": [
        0.9998449683189392,
        0.9999914765357971,
        0.9999925494194031
      ],
      "min": [
        -0.9999951124191284,
        -0.9999256730079651,
        -0.9999896883964539
      ],
      "type": "VEC3"
    },
    {
      "bufferView": 1,
      "componentType": 5126,
      "count": 38692,
      "max": [
        0.9951969981193542,
        0.9999920129776001
      ],
      "min": [
        5.2632098231697455e-05,
        1.1083299796155188e-05
      ],
      "type": "VEC2"
    },
    {
      "bufferView": 0,
      "componentType": 5125,
      "count": 211371,
      "type": "SCALAR"
    },
    {
      "bufferView": 2,
      "byteOffset": 928608,
      "componentType": 5126,
      "count": 1055,
      "max": [
        0.08509562909603119,
        -0.07659267634153366,
        -0.08364606648683548
      ],
      "min": [
        -0.14464811980724335,
        -0.25122639536857605,
        -0.08873187005519867
      ],
      "type": "VEC3"
    },
    {
      "bufferView": 2,
      "byteOffset": 941268,
      "componentType": 5126,
      "count": 1055,
      "max": [
        0.6558434367179871,
        0.9678365588188171,
        0.6566911935806274
      ],
      "min": [
        -0.9948148131370544,
        -0.9901915192604065,
        -0.9999509453773499
      ],
      "type": "VEC3"
    },
    {
      "bufferView": 1,
      "byteOffset": 309536,
      "componentType": 5126,
      "count": 1055,
      "max": [
        0.0,
        0.0
      ],
      "min": [
        0.0,
        0.0
      ],
      "type": "VEC2"
    },
    {
      "bufferView": 0,
      "byteOffset": 845484,
      "componentType": 5125,
      "count": 5367,
      "type": "SCALAR"
    }
  ],
  "asset": {
    "extras": {
      "author": "emm (https://sketchfab.com/edemaistre)",
      "license": "CC-BY-4.0 (http://creativecommons.org/licenses/by/4.0/)",
      "source": "https://sketchfab.com/3d-models/still-life-nature-morte-85fc500543b04f5ba887d42c4e9219d1",
      "title": "Still life / Nature morte"
    },
    "generator": "Sketchfab-12.74.0",
    "version": "2.0"
  },
  "bufferViews": [
    {
      "buffer": 0,
      "byteLength": 866952,
      "name": "floatBufferViews",
      "target": 34963
    },
    {
      "buffer": 0,
      "byteLength": 317976,
      "byteOffset": 866952,
      "byteStride": 8,
      "name": "floatBufferViews",
      "target": 34962
    },
    {
      "buffer": 0,
      "byteLength": 953928,
      "byteOffset": 1184928,
      "byteStride": 12,
      "name": "floatBufferViews",
      "target": 34962
    }
  ],
  "buffers": [
    {
      "byteLength": 2138856,
      "uri": "scene.bin"
    }
  ],
  "extensionsUsed": [
    "KHR_materials_unlit"
  ],
  "images": [
    {
      "uri": "textures/material_1_baseColor.png"
    }
  ],
  "materials": [
    {
      "doubleSided": true,
      "extensions": {
        "KHR_materials_unlit": {}
      },
      "name": "material_1",
      "pbrMetallicRoughness": {
        "baseColorTexture": {
          "index": 0
        },
        "metallicFactor": 0.0
      }
    }
  ],
  "meshes": [
    {
      "name": "Object_0",
      "primitives": [
        {
          "attributes": {
            "NORMAL": 1,
            "POSITION": 0,
            "TEXCOORD_0": 2
          },
          "indices": 3,
          "material": 0,
          "mode": 4
        }
      ]
    },
    {
      "name": "Object_1",
      "primitives": [
        {
          "attributes": {
            "NORMAL": 5,
            "POSITION": 4,
            "TEXCOORD_0": 6
          },
          "indices": 7,
          "material": 0,
          "mode": 4
        }
      ]
    }
  ],
  "nodes": [
    {
      "children": [
        1
      ],
      "matrix": [
        1.0,
        0.0,
        0.0,
        0.0,
        0.0,
        2.220446049250313e-16,
        -1.0,
        0.0,
        0.0,
        1.0,
        2.220446049250313e-16,
        0.0,
        0.0,
        0.0,
        0.0,
        1.0
      ],
      "name": "Sketchfab_model"
    },
    {
      "children": [
        2,
        3
      ],
      "name": "still-life.obj.cleaner.materialmerger.gles"
    },
    {
      "mesh": 0,
      "name": "Object_2"
    },
    {
      "mesh": 1,
      "name": "Object_3"
    }
  ],
  "samplers": [
    {
      "magFilter": 9729,
      "minFilter": 9987,
      "wrapS": 10497,
      "wrapT": 10497
    }
  ],
  "scene": 0,
  "scenes": [
    {
      "name": "Sketchfab_Scene",
      "nodes": [
        0
      ]
    }
  ],
  "textures": [
    {
      "sampler": 0,
      "source": 0
    }
  ]
}
