{"accessors" : [{"bufferView" : 0, "byteOffset" : 0, "componentType" : 5123, "count" : 29178, "type" : "SCALAR", "max" : [23815], "min" : [0]}, {"bufferView" : 1, "byteOffset" : 0, "componentType" : 5126, "count" : 23816, "type" : "VEC3", "max" : [244.9759521484375, 22.874956130981445, 147.86143493652344], "min" : [0, 1.8749562501907349, 7.861964225769043], "name" : "POSITION"}], "asset" : {"generator" : "Aspose.3D 22.1", "version" : "2.0"}, "buffers" : [{"uri" : "data:application/octet-stream;base64,", "byteLength" : 408500}], "bufferViews" : [{"buffer" : 0, "byteOffset" : 0, "byteLength" : 58356, "target" : 34963}, {"buffer" : 0, "byteOffset" : 58360, "byteLength" : 350136, "byteStride" : 12, "target" : 34962}], "meshes" : [{"primitives" : [{"attributes" : {"POSITION" : 1}, "indices" : 0, "mode" : 4}], "name" : ""}], "nodes" : [{"mesh" : 0, "name" : ""}], "scene" : 0, "scenes" : [{"nodes" : [0]}]}