{
  "accessors": [
    {
      "bufferView": 2,
      "componentType": 5126,
      "count": 65532,
      "max": [
        -0.190420001745224,
        -0.1328980028629303,
        0.5122479796409607
      ],
      "min": [
        -0.438618004322052,
        -0.22119399905204773,
        0.15103399753570557
      ],
      "type": "VEC3"
    },
    {
      "bufferView": 2,
      "byteOffset": 786384,
      "componentType": 5126,
      "count": 65532,
      "max": [
        0.9996479749679565,
        0.9595257639884949,
        0.9996715188026428
      ],
      "min": [
        -0.9999920129776001,
        -0.9999996423721313,
        -0.9998798966407776
      ],
      "type": "VEC3"
    },
    {
      "bufferView": 1,
      "componentType": 5126,
      "count": 65532,
      "max": [
        0.997435986995697,
        0.9947389960289001
      ],
      "min": [
        0.0002410000015515834,
        0.0751509964466095
      ],
      "type": "VEC2"
    },
    {
      "bufferView": 0,
      "componentType": 5125,
      "count": 337143,
      "type": "SCALAR"
    },
    {
      "bufferView": 2,
      "byteOffset": 1572768,
      "componentType": 5126,
      "count": 42063,
      "max": [
        -0.1905519962310791,
        -0.13293799757957458,
        0.5114759802818298
      ],
      "min": [
        -0.4385629892349243,
        -0.22119399905204773,
        0.15103399753570557
      ],
      "type": "VEC3"
    },
    {
      "bufferView": 2,
      "byteOffset": 2077524,
      "componentType": 5126,
      "count": 42063,
      "max": [
        0.9996688961982727,
        0.9428476691246033,
        0.9996745586395264
      ],
      "min": [
        -0.9998836517333984,
        -0.9999994039535522,
        -0.9997701644897461
      ],
      "type": "VEC3"
    },
    {
      "bufferView": 1,
      "byteOffset": 524256,
      "componentType": 5126,
      "count": 42063,
      "max": [
        0.9956820011138916,
        0.9946280121803284
      ],
      "min": [
        0.0037869999650865793,
        0.0008249999955296516
      ],
      "type": "VEC2"
    },
    {
      "bufferView": 0,
      "byteOffset": 1348572,
      "componentType": 5125,
      "count": 171327,
      "type": "SCALAR"
    }
  ],
  "asset": {
    "extras": {
      "author": "Terrie Simmons-Ehrhardt (https://sketchfab.com/terrielsimmons)",
      "license": "CC-BY-4.0 (http://creativecommons.org/licenses/by/4.0/)",
      "source": "https://sketchfab.com/3d-models/jumbo-muffins-1f455ef8d4ec466f8abab36ce65a313e",
      "title": "Jumbo Muffins"
    },
    "generator": "Sketchfab-12.74.0",
    "version": "2.0"
  },
  "bufferViews": [
    {
      "buffer": 0,
      "byteLength": 2033880,
      "name": "floatBufferViews",
      "target": 34963
    },
    {
      "buffer": 0,
      "byteLength": 860760,
      "byteOffset": 2033880,
      "byteStride": 8,
      "name": "floatBufferViews",
      "target": 34962
    },
    {
      "buffer": 0,
      "byteLength": 2582280,
      "byteOffset": 2894640,
      "byteStride": 12,
      "name": "floatBufferViews",
      "target": 34962
    }
  ],
  "buffers": [
    {
      "byteLength": 5476920,
      "uri": "scene.bin"
    }
  ],
  "extensionsUsed": [
    "KHR_materials_unlit"
  ],
  "images": [
    {
      "uri": "textures/material_0_baseColor.png"
    }
  ],
  "materials": [
    {
      "doubleSided": true,
      "extensions": {
        "KHR_materials_unlit": {}
      },
      "name": "material_0",
      "pbrMetallicRoughness": {
        "baseColorTexture": {
          "index": 0
        },
        "metallicFactor": 0.0
      }
    }
  ],
  "meshes": [
    {
      "name": "Object_0",
      "primitives": [
        {
          "attributes": {
            "NORMAL": 1,
            "POSITION": 0,
            "TEXCOORD_0": 2
          },
          "indices": 3,
          "material": 0,
          "mode": 4
        }
      ]
    },
    {
      "name": "Object_1",
      "primitives": [
        {
          "attributes": {
            "NORMAL": 5,
            "POSITION": 4,
            "TEXCOORD_0": 6
          },
          "indices": 7,
          "material": 0,
          "mode": 4
        }
      ]
    }
  ],
  "nodes": [
    {
      "children": [
        1
      ],
      "matrix": [
        -0.007270235102623701,
        7.35898429409243e-05,
        0.9999735951423645,
        0.0,
        -0.01012155320495367,
        -0.9999487996101379,
        -3.3305553861720803e-16,
        0.0,
        0.9999223351478577,
        -0.010121285915374758,
        0.007270607631653545,
        0.0,
        -0.6502127051353455,
        0.15798358619213093,
        0.4891455471515656,
        1.0
      ],
      "name": "Sketchfab_model"
    },
    {
      "children": [
        2,
        3
      ],
      "name": "jumbomuffinsed2.obj.cleaner.materialmerger.gles"
    },
    {
      "mesh": 0,
      "name": "Object_2"
    },
    {
      "mesh": 1,
      "name": "Object_3"
    }
  ],
  "samplers": [
    {
      "magFilter": 9729,
      "minFilter": 9987,
      "wrapS": 10497,
      "wrapT": 10497
    }
  ],
  "scene": 0,
  "scenes": [
    {
      "name": "Sketchfab_Scene",
      "nodes": [
        0
      ]
    }
  ],
  "textures": [
    {
      "sampler": 0,
      "source": 0
    }
  ]
}
